<svg xmlns="http://www.w3.org/2000/svg" width="312.345" height="60.077" viewBox="0 0 312.345 60.077">
  <g id="Group_1169" data-name="Group 1169" transform="translate(-48.689 -20.376)">
    <g id="Group_930" data-name="Group 930" transform="translate(48.689 20.376)">
      <path id="Path_440" data-name="Path 440" d="M115.875,31.034V42.877l-.906.514-4.53,2.57-9.6,5.449v-11.3l3.11-1.876,11.023-6.65Z" transform="translate(-74.756 -15.739)"/>
      <path id="Path_441" data-name="Path 441" d="M88.841,36.557V53.652L77.72,47.378V43.034Z" transform="translate(-77.72 -15.031)"/>
      <path id="Path_442" data-name="Path 442" d="M102.537,60.221v.034L91.175,66.646l-.547-.313-3.051-1.748V51.78l14.332,8.087Z" transform="translate(-76.456 -13.079)"/>
      <path id="Path_443" data-name="Path 443" d="M126.9,36.027V60.236l-14.323,8.21-11.74,6.729V62.241l11.74-6.56,3.3-1.844V42.252Z" transform="translate(-74.756 -15.099)"/>
      <path id="Path_444" data-name="Path 444" d="M88.841,37.272v.013L77.72,43.762V30.878Z" transform="translate(-77.72 -15.759)"/>
      <path id="Path_445" data-name="Path 445" d="M102.537,17.478V30.3L98.12,32.865l-2.028,1.179L90.607,37.23l-3.031,1.761V26.15Z" transform="translate(-76.456 -17.478)"/>
      <path id="Path_446" data-name="Path 446" d="M88.841,52.422V65.307L77.72,58.938V46.148Z" transform="translate(-77.72 -13.801)"/>
      <path id="Path_447" data-name="Path 447" d="M102.128,59.291v12.9L90.766,65.683Z" transform="translate(-76.047 -12.115)"/>
      <path id="Path_448" data-name="Path 448" d="M88.841,25.164V38.005L77.72,31.611Z" transform="translate(-77.72 -16.492)"/>
      <path id="Path_449" data-name="Path 449" d="M108.755,55.225l6.1-3.422v.011l-3.3,1.844Z" transform="translate(-73.74 -13.076)"/>
      <path id="Path_450" data-name="Path 450" d="M112.2,65.683,100.836,72.2V59.266Z" transform="translate(-74.756 -12.119)"/>
      <path id="Path_451" data-name="Path 451" d="M115.875,51.813V64.531l-3.3,1.89-.378.217-11.362-6.417v0l8.934-4.993,2.806-1.567Z" transform="translate(-74.756 -13.074)"/>
      <path id="Path_452" data-name="Path 452" d="M125.19,46.326v12.59L118.759,62.6l-4.593,2.634V52.505l3.283-1.84Z" transform="translate(-73.046 -13.778)"/>
      <path id="Path_453" data-name="Path 453" d="M125.19,36.027V47.646l-7.741,4.34-3.283,1.84V42.252Z" transform="translate(-73.046 -15.099)"/>
      <path id="Path_454" data-name="Path 454" d="M125.19,25.139V37.423l-11.025,6.225V31.79Z" transform="translate(-73.046 -16.495)"/>
    </g>
    <path id="Path_2119" data-name="Path 2119" d="M14.964-14.405v-1.783h2.063v5.317H14.964a5.59,5.59,0,0,0-2.24-2.492A6.081,6.081,0,0,0,9.507-14.3a5.673,5.673,0,0,0-2.986.79,5.42,5.42,0,0,0-2.036,2.175A6.687,6.687,0,0,0,3.76-8.186a6.85,6.85,0,0,0,.763,3.276A5.544,5.544,0,0,0,6.644-2.686a6.023,6.023,0,0,0,3.1.795A6.19,6.19,0,0,0,12.2-2.374a4.931,4.931,0,0,0,1.88-1.375,4.133,4.133,0,0,0,.929-2.041H12.031V-7.831h5.9V-7.3a7.558,7.558,0,0,1-1.053,4.028A6.916,6.916,0,0,1,13.97-.645,9.291,9.291,0,0,1,9.808.269,9.652,9.652,0,0,1,5.194-.79a7.364,7.364,0,0,1-3.04-2.959A8.93,8.93,0,0,1,1.1-8.164,8.625,8.625,0,0,1,2.154-12.45,7.594,7.594,0,0,1,5.07-15.4a8.359,8.359,0,0,1,4.211-1.058A8.349,8.349,0,0,1,14.964-14.405Zm14.47,7.1v5.328h1.891V0H27.479V-1.386A5.017,5.017,0,0,1,23.891.193,3.841,3.841,0,0,1,21.984-.29,3.852,3.852,0,0,1,20.6-1.584a3.26,3.26,0,0,1-.521-1.8,3.257,3.257,0,0,1,.575-1.9A3.752,3.752,0,0,1,22.2-6.563a4.653,4.653,0,0,1,1.966-.451,5.4,5.4,0,0,1,3.083.967V-7.262a2.64,2.64,0,0,0-.559-1.891,2.5,2.5,0,0,0-1.837-.569,3.148,3.148,0,0,0-1.509.328,2.619,2.619,0,0,0-1,.994l-2.127-.526a4.756,4.756,0,0,1,1.944-2,6.047,6.047,0,0,1,2.911-.661,4.577,4.577,0,0,1,3.314,1.031A4.405,4.405,0,0,1,29.434-7.3Zm-5.242,5.79a4.38,4.38,0,0,0,3.062-1.364V-4.2a4.719,4.719,0,0,0-2.9-1.128,2.246,2.246,0,0,0-1.52.553,1.762,1.762,0,0,0-.639,1.391,1.769,1.769,0,0,0,.559,1.337A2,2,0,0,0,24.191-1.515Zm10.087-.462V-9.3h-1.9V-11.29h4.114v1.429a6.308,6.308,0,0,1,3.9-1.579,2.673,2.673,0,0,1,2.686,1.762,6.653,6.653,0,0,1,4.093-1.762,2.951,2.951,0,0,1,2.175.806,3.35,3.35,0,0,1,.811,2.471v6.188h1.977V0H47.953V-7.154a7.768,7.768,0,0,0-.075-1.2,1.414,1.414,0,0,0-.392-.784,1.359,1.359,0,0,0-1-.322,3.589,3.589,0,0,0-1.429.365A7.934,7.934,0,0,0,43.334-8v6.026h1.912V0H41.11V-7.434a2.816,2.816,0,0,0-.328-1.558,1.22,1.22,0,0,0-1.08-.473A6.066,6.066,0,0,0,36.491-8v6.026h1.987V0h-6.23V-1.977Zm30.948-3.1H55.763A3.959,3.959,0,0,0,57.02-2.519a3.732,3.732,0,0,0,2.578.94,4.7,4.7,0,0,0,2.073-.462,4.036,4.036,0,0,0,1.6-1.418l1.955.881A5.953,5.953,0,0,1,62.8-.4a7.3,7.3,0,0,1-3.26.736A6.741,6.741,0,0,1,56.3-.43a5.514,5.514,0,0,1-2.208-2.127,6.021,6.021,0,0,1-.79-3.072,6.065,6.065,0,0,1,.779-3.062,5.6,5.6,0,0,1,2.132-2.132,5.945,5.945,0,0,1,2.986-.768,5.966,5.966,0,0,1,3.11.79A5.518,5.518,0,0,1,64.4-8.545,7.984,7.984,0,0,1,65.227-5.081ZM59.243-9.743a3.205,3.205,0,0,0-2.2.843,3.876,3.876,0,0,0-1.214,2.229H62.9A3.935,3.935,0,0,0,61.574-8.9,3.53,3.53,0,0,0,59.243-9.743Zm24.6-1.719v-2.707H76.914v4.823H82.94v2.02H76.914V-2.02h6.929V-4.974h2V0H72.381V-2.02h2.084V-14.169H72.381v-2.02h13.46v4.727Zm5.328,9.485V-9.3h-1.9V-11.29h4.114v1.429a6.308,6.308,0,0,1,3.9-1.579,2.673,2.673,0,0,1,2.686,1.762,6.653,6.653,0,0,1,4.093-1.762,2.951,2.951,0,0,1,2.175.806,3.35,3.35,0,0,1,.811,2.471v6.188h1.977V0h-4.179V-7.154a7.767,7.767,0,0,0-.075-1.2,1.414,1.414,0,0,0-.392-.784,1.359,1.359,0,0,0-1-.322,3.589,3.589,0,0,0-1.429.365A7.934,7.934,0,0,0,98.227-8v6.026h1.912V0H96V-7.434a2.816,2.816,0,0,0-.328-1.558,1.22,1.22,0,0,0-1.08-.473A6.066,6.066,0,0,0,91.384-8v6.026h1.987V0h-6.23V-1.977Zm32.205-3.609a6.2,6.2,0,0,1-.73,2.954,5.633,5.633,0,0,1-1.993,2.17,5.145,5.145,0,0,1-2.8.795,5.368,5.368,0,0,1-3.964-1.74v4.49h2.2V5.06h-6.467V3.083h2.041V-9.3h-1.891V-11.29h4.114v1.8a5.612,5.612,0,0,1,1.848-1.472,4.937,4.937,0,0,1,2.159-.483,5.2,5.2,0,0,1,2.847.79,5.412,5.412,0,0,1,1.939,2.132A6.3,6.3,0,0,1,121.376-5.586ZM115.822-1.7a2.769,2.769,0,0,0,1.665-.537,3.59,3.59,0,0,0,1.16-1.461,4.679,4.679,0,0,0,.419-1.955,4.046,4.046,0,0,0-.462-1.917,3.67,3.67,0,0,0-1.268-1.4,3.271,3.271,0,0,0-1.815-.521,3.355,3.355,0,0,0-1.891.553,3.756,3.756,0,0,0-1.3,1.466,4.386,4.386,0,0,0-.462,2.009A3.522,3.522,0,0,0,112.981-2.7,4.09,4.09,0,0,0,115.822-1.7ZM134.9-5.629a5.928,5.928,0,0,1-.784,3.008,5.834,5.834,0,0,1-2.138,2.159,5.809,5.809,0,0,1-3,.795,5.968,5.968,0,0,1-3.062-.795A5.611,5.611,0,0,1,123.8-2.621a6.093,6.093,0,0,1-.757-3.008A6.183,6.183,0,0,1,123.8-8.7a5.464,5.464,0,0,1,2.111-2.122,6.115,6.115,0,0,1,3.072-.768A5.76,5.76,0,0,1,132-10.78,5.874,5.874,0,0,1,134.127-8.6,5.931,5.931,0,0,1,134.9-5.629Zm-5.919,3.8a3.365,3.365,0,0,0,1.815-.516,3.583,3.583,0,0,0,1.289-1.386,3.992,3.992,0,0,0,.462-1.9,3.948,3.948,0,0,0-.462-1.88,3.7,3.7,0,0,0-1.289-1.4,3.326,3.326,0,0,0-1.837-.532,3.339,3.339,0,0,0-1.815.521,3.684,3.684,0,0,0-1.3,1.4,3.938,3.938,0,0,0-.473,1.891,3.938,3.938,0,0,0,.473,1.891,3.617,3.617,0,0,0,1.311,1.4A3.419,3.419,0,0,0,128.981-1.826ZM139.369-9.3l2.138,6.8,2.148-6.8h-1.2V-11.29h5.425V-9.3h-1.246l2.181,6.8,2.17-6.8h-1.558V-11.29H154.5V-9.3h-1.633l-3.008,9.5H147.77L145.181-7.96,142.56.193h-2.073l-3.029-9.5h-1.364V-11.29h4.748V-9.3Zm28.252,4.222h-9.464a3.959,3.959,0,0,0,1.257,2.562,3.732,3.732,0,0,0,2.578.94,4.7,4.7,0,0,0,2.073-.462,4.036,4.036,0,0,0,1.6-1.418l1.955.881A5.953,5.953,0,0,1,165.2-.4a7.3,7.3,0,0,1-3.26.736,6.741,6.741,0,0,1-3.244-.763,5.514,5.514,0,0,1-2.208-2.127,6.021,6.021,0,0,1-.79-3.072,6.064,6.064,0,0,1,.779-3.062,5.6,5.6,0,0,1,2.132-2.132,5.945,5.945,0,0,1,2.986-.768,5.966,5.966,0,0,1,3.11.79,5.518,5.518,0,0,1,2.089,2.256A7.984,7.984,0,0,1,167.621-5.081Zm-5.983-4.662a3.205,3.205,0,0,0-2.2.843,3.876,3.876,0,0,0-1.214,2.229h7.068A3.935,3.935,0,0,0,163.969-8.9,3.53,3.53,0,0,0,161.638-9.743Zm11.773,5.21v2.557h2.46V0h-6.929V-1.977h2.267V-9.3h-2.267V-11.29h4.028v2.557a4.46,4.46,0,0,1,1.681-2.111,5.682,5.682,0,0,1,2.874-.6h.5V-9.2h-.483a5.887,5.887,0,0,0-2.686.473A2.311,2.311,0,0,0,173.7-7.294,10.227,10.227,0,0,0,173.411-4.533Zm22.816-5.736v-3.9h-3.341V-2.02h2.105V0h-6.617V-2.02h2.063V-14.169h-3.319v3.9h-2v-5.919h13.105v5.919Zm14.309,4.641a5.928,5.928,0,0,1-.784,3.008,5.834,5.834,0,0,1-2.138,2.159,5.809,5.809,0,0,1-3,.795,5.968,5.968,0,0,1-3.062-.795,5.611,5.611,0,0,1-2.122-2.159,6.093,6.093,0,0,1-.757-3.008,6.183,6.183,0,0,1,.757-3.072,5.464,5.464,0,0,1,2.111-2.122,6.115,6.115,0,0,1,3.072-.768,5.76,5.76,0,0,1,3.019.811A5.874,5.874,0,0,1,209.763-8.6,5.931,5.931,0,0,1,210.536-5.629Zm-5.919,3.8a3.365,3.365,0,0,0,1.815-.516,3.583,3.583,0,0,0,1.289-1.386,3.992,3.992,0,0,0,.462-1.9,3.948,3.948,0,0,0-.462-1.88,3.7,3.7,0,0,0-1.289-1.4,3.326,3.326,0,0,0-1.837-.532,3.339,3.339,0,0,0-1.815.521,3.684,3.684,0,0,0-1.3,1.4,3.938,3.938,0,0,0-.473,1.891,3.938,3.938,0,0,0,.473,1.891,3.617,3.617,0,0,0,1.311,1.4A3.419,3.419,0,0,0,204.617-1.826Zm15.512-7.616h-1.783V-11.29H224.6v1.848h-1.74l-4.222,3.5,3.985,3.964H224.6V0h-2.933l-5.65-5.693v3.717h1.912V0h-6.155V-1.977h2.02V-14.233h-2.02v-1.955h4.243V-5.983Zm17.585,4.361H228.25a3.959,3.959,0,0,0,1.257,2.562,3.732,3.732,0,0,0,2.578.94,4.7,4.7,0,0,0,2.073-.462,4.036,4.036,0,0,0,1.6-1.418l1.955.881A5.953,5.953,0,0,1,235.292-.4a7.3,7.3,0,0,1-3.26.736,6.741,6.741,0,0,1-3.244-.763,5.514,5.514,0,0,1-2.208-2.127,6.021,6.021,0,0,1-.79-3.072,6.064,6.064,0,0,1,.779-3.062,5.6,5.6,0,0,1,2.132-2.132,5.945,5.945,0,0,1,2.986-.768,5.966,5.966,0,0,1,3.11.79,5.518,5.518,0,0,1,2.089,2.256A7.984,7.984,0,0,1,237.714-5.081ZM231.73-9.743a3.205,3.205,0,0,0-2.2.843,3.876,3.876,0,0,0-1.214,2.229h7.068A3.935,3.935,0,0,0,234.062-8.9,3.53,3.53,0,0,0,231.73-9.743Zm18.412,2.148v5.618h1.891V0h-4.114V-7.455a2.863,2.863,0,0,0-.306-1.525,1.115,1.115,0,0,0-1-.462,5.615,5.615,0,0,0-3.33,1.461v6h1.944V0H239.1V-1.977h1.987V-9.3H239.1V-11.29h4.179v1.364a6.727,6.727,0,0,1,3.9-1.515,2.657,2.657,0,0,1,2.24.935A4.743,4.743,0,0,1,250.143-7.595Z" transform="translate(109 50)"/>
    <path id="Path_2120" data-name="Path 2120" d="M1.14-7h.74V-.64H5.8V0H1.14ZM10.85.06A3.844,3.844,0,0,1,8.965-.405,3.4,3.4,0,0,1,7.645-1.68,3.53,3.53,0,0,1,7.17-3.5a3.53,3.53,0,0,1,.475-1.82A3.4,3.4,0,0,1,8.965-6.6,3.844,3.844,0,0,1,10.85-7.06a3.82,3.82,0,0,1,1.875.46A3.4,3.4,0,0,1,14.04-5.325,3.528,3.528,0,0,1,14.52-3.5a3.528,3.528,0,0,1-.48,1.825A3.4,3.4,0,0,1,12.725-.4,3.82,3.82,0,0,1,10.85.06Zm0-.66a3.018,3.018,0,0,0,1.5-.375,2.714,2.714,0,0,0,1.05-1.04A2.94,2.94,0,0,0,13.78-3.5a2.94,2.94,0,0,0-.38-1.485,2.714,2.714,0,0,0-1.05-1.04,3.018,3.018,0,0,0-1.5-.375,3.046,3.046,0,0,0-1.505.375,2.74,2.74,0,0,0-1.06,1.04A2.91,2.91,0,0,0,7.9-3.5a2.91,2.91,0,0,0,.385,1.485,2.74,2.74,0,0,0,1.06,1.04A3.046,3.046,0,0,0,10.85-.6ZM21.37-1.87h-3.9L16.63,0h-.77l3.2-7h.73l3.2,7h-.78Zm-.27-.6L19.42-6.23,17.74-2.47ZM29.88-3.5h.71V-.83a3.42,3.42,0,0,1-1.16.66,4.312,4.312,0,0,1-1.41.23A3.869,3.869,0,0,1,26.13-.4a3.4,3.4,0,0,1-1.32-1.275A3.528,3.528,0,0,1,24.33-3.5a3.528,3.528,0,0,1,.48-1.825A3.4,3.4,0,0,1,26.13-6.6a3.89,3.89,0,0,1,1.9-.46A4.1,4.1,0,0,1,29.5-6.8a2.922,2.922,0,0,1,1.13.755l-.46.47a2.877,2.877,0,0,0-2.11-.82,3.143,3.143,0,0,0-1.535.375,2.757,2.757,0,0,0-1.075,1.04A2.881,2.881,0,0,0,25.06-3.5a2.854,2.854,0,0,0,.39,1.48A2.813,2.813,0,0,0,26.52-.98a3.082,3.082,0,0,0,1.53.38,3.049,3.049,0,0,0,1.83-.54ZM33.58-7h.74V0h-.74Zm9.77,0V0h-.61l-4.5-5.68V0H37.5V-7h.61l4.51,5.68V-7Zm8.11,3.5h.71V-.83a3.42,3.42,0,0,1-1.16.66A4.312,4.312,0,0,1,49.6.06,3.869,3.869,0,0,1,47.71-.4a3.4,3.4,0,0,1-1.32-1.275A3.528,3.528,0,0,1,45.91-3.5a3.528,3.528,0,0,1,.48-1.825A3.4,3.4,0,0,1,47.71-6.6a3.89,3.89,0,0,1,1.9-.46,4.1,4.1,0,0,1,1.47.255,2.922,2.922,0,0,1,1.13.755l-.46.47a2.877,2.877,0,0,0-2.11-.82,3.143,3.143,0,0,0-1.535.375,2.757,2.757,0,0,0-1.075,1.04A2.881,2.881,0,0,0,46.64-3.5a2.854,2.854,0,0,0,.39,1.48A2.813,2.813,0,0,0,48.1-.98a3.082,3.082,0,0,0,1.53.38,3.049,3.049,0,0,0,1.83-.54Zm8.58-2.86H57.58V-7h5.66v.64H60.78V0h-.74ZM68.28.06A3.844,3.844,0,0,1,66.4-.405a3.4,3.4,0,0,1-1.32-1.275A3.53,3.53,0,0,1,64.6-3.5a3.53,3.53,0,0,1,.475-1.82A3.4,3.4,0,0,1,66.4-6.6,3.844,3.844,0,0,1,68.28-7.06a3.82,3.82,0,0,1,1.875.46A3.4,3.4,0,0,1,71.47-5.325,3.528,3.528,0,0,1,71.95-3.5a3.528,3.528,0,0,1-.48,1.825A3.4,3.4,0,0,1,70.155-.4,3.82,3.82,0,0,1,68.28.06Zm0-.66a3.018,3.018,0,0,0,1.5-.375,2.714,2.714,0,0,0,1.05-1.04A2.94,2.94,0,0,0,71.21-3.5a2.939,2.939,0,0,0-.38-1.485,2.714,2.714,0,0,0-1.05-1.04,3.018,3.018,0,0,0-1.5-.375,3.046,3.046,0,0,0-1.5.375,2.74,2.74,0,0,0-1.06,1.04A2.91,2.91,0,0,0,65.33-3.5a2.91,2.91,0,0,0,.385,1.485,2.74,2.74,0,0,0,1.06,1.04A3.046,3.046,0,0,0,68.28-.6Zm8.4-2.69L75.25-1.84V0h-.74V-7h.74v4.23L79.36-7h.85L77.18-3.83,80.42,0h-.88ZM87.47-.64V0H82.52V-7h4.8v.64H83.26v2.49h3.62v.63H83.26v2.6ZM95.96-7V0h-.61l-4.5-5.68V0h-.74V-7h.61l4.51,5.68V-7Zm3.18,0h.74V0h-.74Zm8.97,6.36V0h-5.74V-.51l4.64-5.85h-4.57V-7h5.55v.51L103.36-.64Zm6.75-1.23h-3.9L110.12,0h-.77l3.2-7h.73l3.2,7h-.78Zm-.27-.6-1.68-3.76-1.68,3.76Zm4.96-3.89h-2.46V-7h5.66v.64h-2.46V0h-.74ZM124.83-7h.74V0h-.74ZM131.81.06a3.844,3.844,0,0,1-1.885-.465A3.4,3.4,0,0,1,128.6-1.68a3.53,3.53,0,0,1-.475-1.82,3.53,3.53,0,0,1,.475-1.82,3.4,3.4,0,0,1,1.32-1.275,3.844,3.844,0,0,1,1.885-.465,3.82,3.82,0,0,1,1.875.46A3.4,3.4,0,0,1,135-5.325a3.529,3.529,0,0,1,.48,1.825A3.529,3.529,0,0,1,135-1.675,3.4,3.4,0,0,1,133.685-.4,3.82,3.82,0,0,1,131.81.06Zm0-.66a3.018,3.018,0,0,0,1.5-.375,2.714,2.714,0,0,0,1.05-1.04,2.939,2.939,0,0,0,.38-1.485,2.939,2.939,0,0,0-.38-1.485,2.714,2.714,0,0,0-1.05-1.04,3.018,3.018,0,0,0-1.5-.375,3.046,3.046,0,0,0-1.5.375,2.74,2.74,0,0,0-1.06,1.04A2.91,2.91,0,0,0,128.86-3.5a2.91,2.91,0,0,0,.385,1.485,2.74,2.74,0,0,0,1.06,1.04A3.046,3.046,0,0,0,131.81-.6ZM143.89-7V0h-.61l-4.5-5.68V0h-.74V-7h.61l4.51,5.68V-7Zm3.1,7.05a.5.5,0,0,1-.375-.16.54.54,0,0,1-.155-.39.523.523,0,0,1,.155-.385.511.511,0,0,1,.375-.155.528.528,0,0,1,.38.155.514.514,0,0,1,.16.385.531.531,0,0,1-.16.39A.519.519,0,0,1,146.99.05Zm3.02,0a.5.5,0,0,1-.375-.16.54.54,0,0,1-.155-.39.523.523,0,0,1,.155-.385.511.511,0,0,1,.375-.155.528.528,0,0,1,.38.155.514.514,0,0,1,.16.385.531.531,0,0,1-.16.39A.519.519,0,0,1,150.01.05Zm3.02,0a.5.5,0,0,1-.375-.16A.54.54,0,0,1,152.5-.5a.523.523,0,0,1,.155-.385.511.511,0,0,1,.375-.155.528.528,0,0,1,.38.155.514.514,0,0,1,.16.385.531.531,0,0,1-.16.39A.519.519,0,0,1,153.03.05Z" transform="translate(111.842 65.356)"/>
  </g>
</svg>
