<svg xmlns="http://www.w3.org/2000/svg" width="44.902" height="29.56" viewBox="0 0 44.902 29.56">
  <g id="Group_922" data-name="Group 922" transform="translate(-61.94 -125.398)">
    <path id="Path_433" data-name="Path 433" d="M65.669,125.4h37.444a3.737,3.737,0,0,1,3.729,3.729v22.1a3.737,3.737,0,0,1-3.729,3.729H65.669a3.737,3.737,0,0,1-3.729-3.729v-22.1a3.737,3.737,0,0,1,3.729-3.729Zm37.444,2.072H65.669a1.665,1.665,0,0,0-1.657,1.657v22.1a1.664,1.664,0,0,0,1.657,1.657h37.444a1.664,1.664,0,0,0,1.657-1.657v-22.1a1.665,1.665,0,0,0-1.657-1.657Z" transform="translate(0 0)" fill="#a7720f" fill-rule="evenodd"/>
    <path id="Path_434" data-name="Path 434" d="M108.987,173.7v5.454H64.775v-6.144h44.211Z" transform="translate(-2.49 -41.809)" fill="#a7720f"/>
    <path id="Path_435" data-name="Path 435" d="M95.563,258.077a4.133,4.133,0,0,1,1.431.255l.117.045a4.837,4.837,0,0,0,0,7.689l-.117.045a4.145,4.145,0,1,1-1.431-8.034Z" transform="translate(-25.887 -116.518)" fill="#a7720f"/>
    <path id="Path_436" data-name="Path 436" d="M129.431,259.291a4.144,4.144,0,1,1-1.214,2.931A4.132,4.132,0,0,1,129.431,259.291Z" transform="translate(-58.204 -116.518)" fill="#a7720f"/>
    <path id="Path_437" data-name="Path 437" d="M220.452,283.6h4.426a1.038,1.038,0,0,1,0,2.072h-4.426a1.038,1.038,0,0,1,0-2.072Zm7.709,0h4.426a1.038,1.038,0,0,1,0,2.072H228.16a1.038,1.038,0,0,1,0-2.072Zm7.709,0h4.426a1.038,1.038,0,0,1,0,2.072h-4.426a1.038,1.038,0,0,1,0-2.072Z" transform="translate(-138.347 -138.931)" fill="#a7720f" fill-rule="evenodd"/>
  </g>
</svg>
