<svg xmlns="http://www.w3.org/2000/svg" width="24" height="17.26" viewBox="0 0 24 17.26">
  <path id="iconmonstr-discord-3" d="M27.854,29.261a7.511,7.511,0,0,0,6.288-3.123,27.517,27.517,0,0,0-2.959-11.979A10.161,10.161,0,0,0,25.409,12l-.288.329a13.675,13.675,0,0,1,5.116,2.61,16.75,16.75,0,0,0-6.185-1.973,17.386,17.386,0,0,0-4.151.041l-.349.041a15.431,15.431,0,0,0-4.664,1.295l-1.212.6a13.862,13.862,0,0,1,5.4-2.692L18.875,12A10.161,10.161,0,0,0,13.1,14.159a27.517,27.517,0,0,0-2.959,11.979,7.45,7.45,0,0,0,6.267,3.123l1.377-1.705a6.391,6.391,0,0,1-3.6-2.425l.575.349.082.062.082.046.023.01.08.046a12.041,12.041,0,0,0,1.5.7,17.249,17.249,0,0,0,3.021.884,14.394,14.394,0,0,0,5.322.021,13.524,13.524,0,0,0,2.979-.884,11.758,11.758,0,0,0,2.363-1.212A6.484,6.484,0,0,1,26.5,27.6l1.356,1.664Zm-9.555-9.6a2.289,2.289,0,1,0,2.1,2.281A2.189,2.189,0,0,0,18.3,19.665Zm7.5,0a2.289,2.289,0,1,0,2.1,2.281A2.189,2.189,0,0,0,25.8,19.665Z" transform="translate(-10.142 -12.001)" fill-rule="evenodd"/>
</svg>
