<svg version="1.2" xmlns="http://www.w3.org/2000/svg" viewBox="0 0 38 44" width="38" height="44"><style>.a{fill:#fff;stroke:#fff}</style><path class="a" d="m29.3 11.4v8.1l-0.7 0.4-3.1 1.7-6.6 3.8v-7.8l2.2-1.3 7.5-4.5z"/><path class="a" d="m8.6 15.7v11.7l-7.6-4.3v-3z"/><path class="a" d="m18.9 33.3l-7.8 4.4-0.4-0.2-2.1-1.2v-8.8l9.9 5.5z"/><path class="a" d="m36.8 15.2v16.7l-9.8 5.6-8.1 4.6v-8.8l8.1-4.5 2.3-1.3v-8z"/><path class="a" d="m8.6 15.6v0.1l-7.6 4.4v-8.8z"/><path class="a" d="m18.9 0.9v8.8l-3 1.7-1.4 0.9-3.8 2.1-2.1 1.2v-8.8z"/><path class="a" d="m8.6 27.4v8.9l-7.6-4.4v-8.8z"/><path class="a" d="m18.9 33.3v8.8l-7.8-4.4z"/><path class="a" d="m8.6 6.8v8.8l-7.6-4.3z"/><path class="a" d="m25.1 29.8l4.2-2.3-2.3 1.2z"/><path class="a" d="m26.7 37.7l-7.8 4.4v-8.8z"/><path class="a" d="m29.3 27.5v8.7l-2.3 1.3-0.3 0.2-7.8-4.4 6.2-3.5 1.9-1z"/><path class="a" d="m36.8 23.2v8.7l-4.4 2.5-3.1 1.8v-8.7l2.2-1.3z"/><path class="a" d="m36.8 15.2v8l-5.3 3-2.2 1.3v-8z"/><path class="a" d="m36.8 6.8v8.4l-7.5 4.3v-8.1z"/></svg>