<svg xmlns="http://www.w3.org/2000/svg" width="51.476" height="44.78" viewBox="0 0 51.476 44.78">
  <g id="tether-usdt-logo" transform="translate(-0.005 0)">
    <path id="Path_425" data-name="Path 425" d="M9.43.22.044,19.935a.382.382,0,0,0,.082.446l25.35,24.291a.387.387,0,0,0,.535,0l25.35-24.29a.382.382,0,0,0,.082-.446L42.056.221A.379.379,0,0,0,41.711,0H9.779A.379.379,0,0,0,9.43.22h0Z" transform="translate(0 0)" fill="#50af95" fill-rule="evenodd"/>
    <path id="Path_426" data-name="Path 426" d="M83.383,56.089h0c-.182.014-1.122.07-3.22.07-1.668,0-2.853-.05-3.268-.07h0c-6.447-.284-11.259-1.406-11.259-2.75s4.812-2.464,11.259-2.753v4.384c.422.03,1.629.1,3.3.1,2,0,3-.083,3.185-.1V50.59c6.433.287,11.235,1.409,11.235,2.75s-4.8,2.463-11.235,2.748h0Zm0-5.953V46.213h8.978V40.23H67.917v5.983h8.977v3.922c-7.3.335-12.783,1.78-12.783,3.512S69.6,56.823,76.893,57.16V69.732h6.488V57.155c7.28-.335,12.757-1.779,12.757-3.509s-5.473-3.174-12.757-3.511h0Zm0,0Z" transform="translate(-54.383 -34.129)" fill="#fff" fill-rule="evenodd"/>
  </g>
</svg>
